<svg width="46" height="47" viewBox="0 0 46 47" fill="none" xmlns="http://www.w3.org/2000/svg">
<g filter="url(#filter0_ii_406_1024)">
<path d="M18.9692 37.4072C22.8481 37.4072 26.47 36.1289 29.4142 33.9984L40.4902 45.2188C41.0042 45.7396 41.6819 46 42.3829 46C43.9018 46 45 44.8164 45 43.3014C45 42.5913 44.7663 41.9285 44.2523 41.4077L33.2464 30.2346C35.5597 27.1573 36.9384 23.3461 36.9384 19.2036C36.9384 9.19043 28.8534 1 18.9692 1C9.0616 1 1 9.19043 1 19.2036C1 29.2167 9.0616 37.4072 18.9692 37.4072ZM18.9692 33.4776C11.2347 33.4776 4.87892 27.0153 4.87892 19.2036C4.87892 11.3919 11.2347 4.92951 18.9692 4.92951C26.6803 4.92951 33.0595 11.3919 33.0595 19.2036C33.0595 27.0153 26.6803 33.4776 18.9692 33.4776Z" fill="black"/>
<path d="M18.9692 37.4072C22.8481 37.4072 26.47 36.1289 29.4142 33.9984L40.4902 45.2188C41.0042 45.7396 41.6819 46 42.3829 46C43.9018 46 45 44.8164 45 43.3014C45 42.5913 44.7663 41.9285 44.2523 41.4077L33.2464 30.2346C35.5597 27.1573 36.9384 23.3461 36.9384 19.2036C36.9384 9.19043 28.8534 1 18.9692 1C9.0616 1 1 9.19043 1 19.2036C1 29.2167 9.0616 37.4072 18.9692 37.4072ZM18.9692 33.4776C11.2347 33.4776 4.87892 27.0153 4.87892 19.2036C4.87892 11.3919 11.2347 4.92951 18.9692 4.92951C26.6803 4.92951 33.0595 11.3919 33.0595 19.2036C33.0595 27.0153 26.6803 33.4776 18.9692 33.4776Z" fill="url(#paint0_linear_406_1024)" fill-opacity="0.4" style="mix-blend-mode:soft-light"/>
</g>
<path d="M18.9692 37.6782C22.8255 37.6782 26.4305 36.434 29.3837 34.3533L40.2973 45.4092C40.8653 45.9846 41.6137 46.271 42.3829 46.271C44.0625 46.271 45.271 44.9548 45.271 43.3014C45.271 42.5292 45.0154 41.795 44.4451 41.2173L33.6024 30.2098C35.8654 27.1209 37.2094 23.3236 37.2094 19.2036C37.2094 9.04406 29.0064 0.728968 18.9692 0.728968C8.90839 0.728968 0.728968 9.04429 0.728968 19.2036C0.728968 29.3629 8.90839 37.6782 18.9692 37.6782ZM18.9692 33.2066C11.388 33.2066 5.14995 26.8692 5.14995 19.2036C5.14995 11.538 11.388 5.20054 18.9692 5.20054C26.5273 5.20054 32.7884 11.5383 32.7884 19.2036C32.7884 26.8689 26.5273 33.2066 18.9692 33.2066Z" stroke="black" stroke-width="0.542063"/>
<defs>
<filter id="filter0_ii_406_1024" x="-0.0840552" y="-0.0841163" width="46.1681" height="47.1682" filterUnits="userSpaceOnUse" color-interpolation-filters="sRGB">
<feFlood flood-opacity="0" result="BackgroundImageFix"/>
<feBlend mode="normal" in="SourceGraphic" in2="BackgroundImageFix" result="shape"/>
<feColorMatrix in="SourceAlpha" type="matrix" values="0 0 0 0 0 0 0 0 0 0 0 0 0 0 0 0 0 0 127 0" result="hardAlpha"/>
<feOffset dx="0.542063" dy="0.542063"/>
<feGaussianBlur stdDeviation="0.542063"/>
<feComposite in2="hardAlpha" operator="arithmetic" k2="-1" k3="1"/>
<feColorMatrix type="matrix" values="0 0 0 0 0.65098 0 0 0 0 0.670588 0 0 0 0 0.741176 0 0 0 1 0"/>
<feBlend mode="normal" in2="shape" result="effect1_innerShadow_406_1024"/>
<feColorMatrix in="SourceAlpha" type="matrix" values="0 0 0 0 0 0 0 0 0 0 0 0 0 0 0 0 0 0 127 0" result="hardAlpha"/>
<feOffset dx="-0.542063" dy="-0.542063"/>
<feGaussianBlur stdDeviation="0.542063"/>
<feComposite in2="hardAlpha" operator="arithmetic" k2="-1" k3="1"/>
<feColorMatrix type="matrix" values="0 0 0 0 0.980392 0 0 0 0 0.984314 0 0 0 0 1 0 0 0 1 0"/>
<feBlend mode="normal" in2="effect1_innerShadow_406_1024" result="effect2_innerShadow_406_1024"/>
</filter>
<linearGradient id="paint0_linear_406_1024" x1="69.1782" y1="23.5" x2="24.0942" y2="-24.9467" gradientUnits="userSpaceOnUse">
<stop offset="0.9999"/>
<stop offset="1" stop-color="white"/>
</linearGradient>
</defs>
</svg>
