<svg width="32" height="47" viewBox="0 0 32 47" fill="none" xmlns="http://www.w3.org/2000/svg">
<g filter="url(#filter0_ii_406_1023)">
<path d="M1 23.1197C1 25.8803 1.55905 28.331 2.67715 30.4718C3.80922 32.6127 5.38155 34.331 7.39413 35.6268C9.40671 36.9084 11.7477 37.662 14.4172 37.8873V42.8099H6.63941C6.19217 42.8099 5.81481 42.9648 5.50734 43.2746C5.19986 43.5845 5.04612 43.9648 5.04612 44.4155C5.04612 44.8521 5.19986 45.2253 5.50734 45.5352C5.81481 45.8451 6.19217 46 6.63941 46H25.3606C25.8078 46 26.1852 45.8451 26.4927 45.5352C26.8001 45.2253 26.9539 44.8521 26.9539 44.4155C26.9539 43.9648 26.8001 43.5845 26.4927 43.2746C26.1852 42.9648 25.8078 42.8099 25.3606 42.8099H17.5828V37.8873C20.2523 37.662 22.5933 36.9084 24.6059 35.6268C26.6185 34.331 28.1838 32.6127 29.3019 30.4718C30.434 28.331 31 25.8803 31 23.1197V18.831C31 18.3944 30.8463 18.0211 30.5388 17.7113C30.2313 17.4014 29.8609 17.2465 29.4277 17.2465C28.9804 17.2465 28.6031 17.4014 28.2956 17.7113C27.9881 18.0211 27.8344 18.3944 27.8344 18.831V22.993C27.8344 25.3873 27.3452 27.4859 26.3669 29.2887C25.3885 31.0915 24.0119 32.493 22.2369 33.493C20.4759 34.4789 18.4004 34.9718 16.0105 34.9718C13.6205 34.9718 11.5381 34.4789 9.7631 33.493C7.98812 32.493 6.61146 31.0915 5.63312 29.2887C4.65479 27.4859 4.16562 25.3873 4.16562 22.993V18.831C4.16562 18.3944 4.01188 18.0211 3.7044 17.7113C3.39693 17.4014 3.01957 17.2465 2.57233 17.2465C2.13906 17.2465 1.76869 17.4014 1.46122 17.7113C1.15374 18.0211 1 18.3944 1 18.831V23.1197ZM16.0105 30.4296C17.3941 30.4296 18.6101 30.1056 19.6583 29.4577C20.7205 28.8099 21.5381 27.9155 22.1111 26.7746C22.6981 25.6197 22.9916 24.2887 22.9916 22.7817V8.64789C22.9916 7.14084 22.6981 5.8169 22.1111 4.67606C21.5381 3.52113 20.7205 2.61972 19.6583 1.97183C18.6101 1.32394 17.3941 1 16.0105 1C14.6129 1 13.3899 1.32394 12.3417 1.97183C11.2935 2.61972 10.4759 3.52113 9.88889 4.67606C9.30189 5.8169 9.00839 7.14084 9.00839 8.64789V22.7817C9.00839 24.2887 9.30189 25.6197 9.88889 26.7746C10.4759 27.9155 11.2935 28.8099 12.3417 29.4577C13.3899 30.1056 14.6129 30.4296 16.0105 30.4296Z" fill="black"/>
<path d="M1 23.1197C1 25.8803 1.55905 28.331 2.67715 30.4718C3.80922 32.6127 5.38155 34.331 7.39413 35.6268C9.40671 36.9084 11.7477 37.662 14.4172 37.8873V42.8099H6.63941C6.19217 42.8099 5.81481 42.9648 5.50734 43.2746C5.19986 43.5845 5.04612 43.9648 5.04612 44.4155C5.04612 44.8521 5.19986 45.2253 5.50734 45.5352C5.81481 45.8451 6.19217 46 6.63941 46H25.3606C25.8078 46 26.1852 45.8451 26.4927 45.5352C26.8001 45.2253 26.9539 44.8521 26.9539 44.4155C26.9539 43.9648 26.8001 43.5845 26.4927 43.2746C26.1852 42.9648 25.8078 42.8099 25.3606 42.8099H17.5828V37.8873C20.2523 37.662 22.5933 36.9084 24.6059 35.6268C26.6185 34.331 28.1838 32.6127 29.3019 30.4718C30.434 28.331 31 25.8803 31 23.1197V18.831C31 18.3944 30.8463 18.0211 30.5388 17.7113C30.2313 17.4014 29.8609 17.2465 29.4277 17.2465C28.9804 17.2465 28.6031 17.4014 28.2956 17.7113C27.9881 18.0211 27.8344 18.3944 27.8344 18.831V22.993C27.8344 25.3873 27.3452 27.4859 26.3669 29.2887C25.3885 31.0915 24.0119 32.493 22.2369 33.493C20.4759 34.4789 18.4004 34.9718 16.0105 34.9718C13.6205 34.9718 11.5381 34.4789 9.7631 33.493C7.98812 32.493 6.61146 31.0915 5.63312 29.2887C4.65479 27.4859 4.16562 25.3873 4.16562 22.993V18.831C4.16562 18.3944 4.01188 18.0211 3.7044 17.7113C3.39693 17.4014 3.01957 17.2465 2.57233 17.2465C2.13906 17.2465 1.76869 17.4014 1.46122 17.7113C1.15374 18.0211 1 18.3944 1 18.831V23.1197ZM16.0105 30.4296C17.3941 30.4296 18.6101 30.1056 19.6583 29.4577C20.7205 28.8099 21.5381 27.9155 22.1111 26.7746C22.6981 25.6197 22.9916 24.2887 22.9916 22.7817V8.64789C22.9916 7.14084 22.6981 5.8169 22.1111 4.67606C21.5381 3.52113 20.7205 2.61972 19.6583 1.97183C18.6101 1.32394 17.3941 1 16.0105 1C14.6129 1 13.3899 1.32394 12.3417 1.97183C11.2935 2.61972 10.4759 3.52113 9.88889 4.67606C9.30189 5.8169 9.00839 7.14084 9.00839 8.64789V22.7817C9.00839 24.2887 9.30189 25.6197 9.88889 26.7746C10.4759 27.9155 11.2935 28.8099 12.3417 29.4577C13.3899 30.1056 14.6129 30.4296 16.0105 30.4296Z" fill="url(#paint0_linear_406_1023)" fill-opacity="0.4" style="mix-blend-mode:soft-light"/>
</g>
<path d="M9.64789 26.8986L9.64727 26.8974C9.03801 25.6987 8.73735 24.3244 8.73735 22.7817V8.64789C8.73735 7.10552 9.03786 5.73794 9.64755 4.55272C10.2559 3.35609 11.1067 2.41658 12.1992 1.74128C13.2958 1.06351 14.5694 0.728968 16.0105 0.728968C17.4378 0.728968 18.7041 1.06364 19.8001 1.74086C20.9067 2.41602 21.7583 3.3559 22.353 4.55381C22.9623 5.73877 23.2626 7.10599 23.2626 8.64789V22.7817C23.2626 24.3241 22.9621 25.6982 22.3531 26.8968C22.353 26.897 22.3528 26.8972 22.3527 26.8974L22.1111 26.7746C21.5381 27.9155 20.7205 28.8099 19.6583 29.4577L9.64789 26.8986ZM9.64789 26.8986C10.2565 28.0814 11.1073 29.0134 12.1992 29.6883C13.2958 30.3661 14.5694 30.7006 16.0105 30.7006C17.4378 30.7006 18.7041 30.3659 19.8001 29.6887L9.64789 26.8986ZM2.43691 30.5973L2.43755 30.5985C3.59112 32.78 5.19522 34.5334 7.24741 35.8546L7.24854 35.8554C9.23944 37.1232 11.5407 37.8813 14.1462 38.1348V42.5388H6.63941C6.12192 42.5388 5.6747 42.7212 5.31495 43.0837C4.9553 43.4462 4.77509 43.8959 4.77509 44.4155C4.77509 44.9236 4.95709 45.3655 5.31495 45.7261C5.6747 46.0886 6.12192 46.271 6.63941 46.271H25.3606C25.8781 46.271 26.3253 46.0886 26.6851 45.7261C27.0429 45.3655 27.2249 44.9236 27.2249 44.4155C27.2249 43.8959 27.0447 43.4462 26.6851 43.0837C26.3253 42.7212 25.8781 42.5388 25.3606 42.5388H17.8538V38.1348C20.4593 37.8813 22.7606 37.1232 24.7515 35.8554L24.7526 35.8546C26.8048 34.5333 28.4021 32.7798 29.5417 30.598C30.697 28.4131 31.271 25.918 31.271 23.1197V18.831C31.271 18.3229 31.089 17.881 30.7312 17.5204C30.3732 17.1597 29.9338 16.9754 29.4277 16.9754C28.9102 16.9754 28.463 17.1578 28.1032 17.5204C27.7453 17.881 27.5634 18.3229 27.5634 18.831V22.993C27.5634 25.3498 27.0821 27.4025 26.1287 29.1595C25.1745 30.9178 23.8342 32.282 22.1039 33.2568C20.3904 34.216 18.3624 34.7008 16.0105 34.7008C13.6589 34.7008 11.6236 34.2161 9.89572 33.2566C8.16567 32.2818 6.82546 30.9177 5.87134 29.1595C4.91789 27.4025 4.43665 25.3498 4.43665 22.993V18.831C4.43665 18.3229 4.25465 17.881 3.89679 17.5204C3.53704 17.1578 3.08982 16.9754 2.57233 16.9754C2.06621 16.9754 1.62676 17.1597 1.26883 17.5204C0.910964 17.881 0.728968 18.3229 0.728968 18.831V23.1197C0.728968 25.9177 1.29586 28.4125 2.43691 30.5973Z" stroke="black" stroke-opacity="0.4" stroke-width="0.542063"/>
<defs>
<filter id="filter0_ii_406_1023" x="-0.0840552" y="-0.0841163" width="32.1681" height="47.1682" filterUnits="userSpaceOnUse" color-interpolation-filters="sRGB">
<feFlood flood-opacity="0" result="BackgroundImageFix"/>
<feBlend mode="normal" in="SourceGraphic" in2="BackgroundImageFix" result="shape"/>
<feColorMatrix in="SourceAlpha" type="matrix" values="0 0 0 0 0 0 0 0 0 0 0 0 0 0 0 0 0 0 127 0" result="hardAlpha"/>
<feOffset dx="0.542063" dy="0.542063"/>
<feGaussianBlur stdDeviation="0.542063"/>
<feComposite in2="hardAlpha" operator="arithmetic" k2="-1" k3="1"/>
<feColorMatrix type="matrix" values="0 0 0 0 0.65098 0 0 0 0 0.670588 0 0 0 0 0.741176 0 0 0 1 0"/>
<feBlend mode="normal" in2="shape" result="effect1_innerShadow_406_1023"/>
<feColorMatrix in="SourceAlpha" type="matrix" values="0 0 0 0 0 0 0 0 0 0 0 0 0 0 0 0 0 0 127 0" result="hardAlpha"/>
<feOffset dx="-0.542063" dy="-0.542063"/>
<feGaussianBlur stdDeviation="0.542063"/>
<feComposite in2="hardAlpha" operator="arithmetic" k2="-1" k3="1"/>
<feColorMatrix type="matrix" values="0 0 0 0 0.980392 0 0 0 0 0.984314 0 0 0 0 1 0 0 0 1 0"/>
<feBlend mode="normal" in2="effect1_innerShadow_406_1023" result="effect2_innerShadow_406_1023"/>
</filter>
<linearGradient id="paint0_linear_406_1023" x1="47.4851" y1="23.5" x2="4.38634" y2="-8.07734" gradientUnits="userSpaceOnUse">
<stop/>
<stop offset="1" stop-color="white"/>
</linearGradient>
</defs>
</svg>
